<svg xmlns="http://www.w3.org/2000/svg" viewBox="0 0 41.89 41.89"><path d="M20.95,0H37.16a4.73,4.73,0,0,1,4.73,4.73V20.95A20.95,20.95,0,0,1,20.95,41.89h0A20.95,20.95,0,0,1,0,20.95v0A20.95,20.95,0,0,1,20.95,0Z" style="fill:#374151"/><path d="M11.22,24.19a2.16,2.16,0,0,0,2.16,2.16h13l4.32,4.32V13.38a2.16,2.16,0,0,0-2.16-2.16H13.38a2.16,2.16,0,0,0-2.16,2.16Z" style="fill:#fff"/><line x1="16.12" y1="16.39" x2="25.77" y2="16.39" style="fill:none;stroke:#374151;stroke-linecap:round;stroke-miterlimit:10;stroke-width:1.5px"/><line x1="16.12" y1="21.16" x2="25.77" y2="21.16" style="fill:none;stroke:#374151;stroke-linecap:round;stroke-miterlimit:10;stroke-width:1.5px"/></svg>